<svg xmlns="http://www.w3.org/2000/svg" viewBox="0 0 24 24">
  <path fill="#94a3b8" d="M19.14 12.94c.04-.31.06-.63.06-.94s-.02-.63-.06-.94l2.03-1.58a.49.49 0 0 0 .12-.64l-1.92-3.32a.5.5 0 0 0-.6-.22l-2.39.96c-.5-.38-1.05-.7-1.63-.94l-.36-2.54A.5.5 0 0 0 13.9 2h-3.8a.5.5 0 0 0-.49.42l-.36 2.54c-.58.24-1.13.56-1.63.94l-2.39-.96a.5.5 0 0 0-.6.22L2.71 8.48a.49.49 0 0 0 .12.64l2.03 1.58c-.04.31-.06.63-.06.94s.02.63.06.94l-2.03 1.58a.49.49 0 0 0-.12.64l1.92 3.32c.13.24.42.34.67.22l2.39-.96c.5.38 1.05.7 1.63.94l.36 2.54c.05.24.25.42.49.42h3.8c.24 0 .44-.18.49-.42l.36-2.54c.58-.24 1.13-.56 1.63-.94l2.39.96c.25.12.54.02.67-.22l1.92-3.32a.49.49 0 0 0-.12-.64l-2.03-1.58z"/>
  <circle cx="12" cy="12" r="3.15" fill="none" stroke="#0b1220" stroke-width="2.4"/>
  <circle cx="12" cy="12" r="2.05" fill="#334155"/>
</svg>
